<?xml version="1.0" encoding="UTF-8"?>
<!-- Created with Inkscape (http://www.inkscape.org/) -->
<svg width="184.92mm" height="43.212mm" version="1.1" viewBox="0 0 184.92 43.212" xmlns="http://www.w3.org/2000/svg" xmlns:cc="http://creativecommons.org/ns#" xmlns:dc="http://purl.org/dc/elements/1.1/" xmlns:rdf="http://www.w3.org/1999/02/22-rdf-syntax-ns#">
 <defs>
  <clipPath id="clipPath831">
   <path d="M 0,0 V 1262.88 H 1785.78 V 0 H 0"/>
  </clipPath>
  <clipPath id="clipPath1041">
   <path d="M 0,0 V 1262.88 H 1785.78 V 0 H 0"/>
  </clipPath>
 </defs>
 <metadata>
  <rdf:RDF>
   <cc:Work rdf:about="">
    <dc:format>image/svg+xml</dc:format>
    <dc:type rdf:resource="http://purl.org/dc/dcmitype/StillImage"/>
    <dc:title/>
   </cc:Work>
  </rdf:RDF>
 </metadata>
 <g transform="translate(-8.7562 -43.771)">
  <g transform="matrix(.35278 0 0 -.35278 -92.243 263.49)">
   <g transform="matrix(.61529 0 0 .61529 175.77 296.98)">
    <g clip-path="url(#clipPath831)">
     <g fill="none" stroke="#000" stroke-linecap="round" stroke-linejoin="round" stroke-miterlimit="10" stroke-width="1.44">
      <path d="m888.66 515.52h0.36005"/>
      <path d="m889.02 463.32v61.92"/>
      <path d="m750.96 456.84-1.44 0.17999-1.08 0.90002-0.90002 1.44-0.17999 1.62"/>
      <path d="m743.76 515.34 0.89996 0.17999"/>
      <path d="m747.36 473.4-0.53998 1.98-1.26 1.44-1.8 0.53998"/>
      <path d="m747.36 496.62v-35.64"/>
     </g>
     <g transform="matrix(-.00297 1 -1 -.00297 704.79 366.57)">
      <path d="m14.13 0c0 7.7869-6.2998 14.106-14.087 14.13s-14.125-6.2565-14.173-14.043" fill="none" stroke="#000" stroke-linecap="round" stroke-linejoin="round" stroke-miterlimit="10" stroke-width="1.44"/>
     </g>
     <g transform="matrix(.00288 -1 1 .00288 893.97 366.57)">
      <path d="m14.13 0c0 7.7869-6.2998 14.106-14.087 14.13s-14.125-6.2565-14.173-14.043" fill="none" stroke="#000" stroke-linecap="round" stroke-linejoin="round" stroke-miterlimit="10" stroke-width="1.44"/>
     </g>
     <g transform="rotate(269.99 684.52 -317.92)">
      <path d="m14.13 0c0 7.8035-6.3258 14.13-14.129 14.13s-14.13-6.3251-14.131-14.129" fill="none" stroke="#000" stroke-linecap="round" stroke-linejoin="round" stroke-miterlimit="10" stroke-width="1.44"/>
     </g>
     <path d="m1030.9 528.84v-42.66" fill="none" stroke="#000" stroke-linecap="round" stroke-linejoin="round" stroke-miterlimit="10" stroke-width="1.44"/>
     <g transform="rotate(269.99 564.37 -141.08)">
      <path d="m14.13 0c0 7.8035-6.3258 14.13-14.129 14.13s-14.13-6.3251-14.131-14.129" fill="none" stroke="#000" stroke-linecap="round" stroke-linejoin="round" stroke-miterlimit="10" stroke-width="1.44"/>
     </g>
     <g transform="rotate(89.994 165.94 589.27)">
      <path d="m14.13 0c0 7.8035-6.3258 14.13-14.129 14.13s-14.13-6.3251-14.131-14.129" fill="none" stroke="#000" stroke-linecap="round" stroke-linejoin="round" stroke-miterlimit="10" stroke-width="1.44"/>
     </g>
     <path d="m755.1 409.14h25.56" fill="none" stroke="#000" stroke-linecap="round" stroke-linejoin="round" stroke-miterlimit="10" stroke-width="1.44"/>
     <g transform="rotate(269.99 601.9 -178.61)">
      <path d="m14.13 0c0 7.8035-6.3258 14.13-14.129 14.13s-14.13-6.3251-14.131-14.129" fill="none" stroke="#000" stroke-linecap="round" stroke-linejoin="round" stroke-miterlimit="10" stroke-width="1.44"/>
     </g>
     <path d="m780.66 437.58h-25.56" fill="none" stroke="#000" stroke-linecap="round" stroke-linejoin="round" stroke-miterlimit="10" stroke-width="1.44"/>
     <g transform="rotate(89.994 203.47 626.8)">
      <path d="m14.13 0c0 7.8035-6.3258 14.13-14.129 14.13s-14.13-6.3251-14.131-14.129" fill="none" stroke="#000" stroke-linecap="round" stroke-linejoin="round" stroke-miterlimit="10" stroke-width="1.44"/>
     </g>
     <path d="m830.34 409.14h49.5" fill="none" stroke="#000" stroke-linecap="round" stroke-linejoin="round" stroke-miterlimit="10" stroke-width="1.44"/>
     <g transform="rotate(269.99 651.58 -228.29)">
      <path d="m14.13 0c0 7.8035-6.3258 14.13-14.129 14.13s-14.13-6.3251-14.131-14.129" fill="none" stroke="#000" stroke-linecap="round" stroke-linejoin="round" stroke-miterlimit="10" stroke-width="1.44"/>
     </g>
     <path d="m879.84 437.58h-49.5" fill="none" stroke="#000" stroke-linecap="round" stroke-linejoin="round" stroke-miterlimit="10" stroke-width="1.44"/>
     <path d="m1002.4 437.58h-72.9" fill="none" stroke="#000" stroke-linecap="round" stroke-linejoin="round" stroke-miterlimit="10" stroke-width="1.44"/>
     <g transform="rotate(89.994 253.06 676.4)">
      <path d="m14.13 0c0 7.8035-6.3258 14.13-14.129 14.13s-14.13-6.3251-14.131-14.129" fill="none" stroke="#000" stroke-linecap="round" stroke-linejoin="round" stroke-miterlimit="10" stroke-width="1.44"/>
     </g>
     <path d="m929.52 409.14h72.9" fill="none" stroke="#000" stroke-linecap="round" stroke-linejoin="round" stroke-miterlimit="10" stroke-width="1.44"/>
     <g transform="rotate(269.99 712.87 -289.57)">
      <path d="m14.13 0c0 7.8035-6.3258 14.13-14.129 14.13s-14.13-6.3251-14.131-14.129" fill="none" stroke="#000" stroke-linecap="round" stroke-linejoin="round" stroke-miterlimit="10" stroke-width="1.44"/>
     </g>
     <g transform="matrix(.00288 -1 1 .00288 794.79 366.57)">
      <path d="m14.13 0c0 7.7869-6.2998 14.106-14.087 14.13s-14.125-6.2565-14.173-14.043" fill="none" stroke="#000" stroke-linecap="round" stroke-linejoin="round" stroke-miterlimit="10" stroke-width="1.44"/>
     </g>
     <g fill="none" stroke="#000" stroke-linecap="round" stroke-linejoin="round" stroke-miterlimit="10" stroke-width="1.44">
      <path d="m1030.9 486.18v-154.98"/>
      <path d="m888.66 515.52h-144"/>
      <path d="m750.96 456.84h137.16"/>
      <path d="m889.02 514.26"/>
     </g>
     <g transform="rotate(89.994 183.75 708.97)">
      <path d="m3.51 0c0 1.9384-1.5713 3.5098-3.5097 3.51" fill="none" stroke="#000" stroke-linecap="round" stroke-linejoin="round" stroke-miterlimit="10" stroke-width="1.44"/>
     </g>
     <g fill="none" stroke="#000" stroke-linecap="round" stroke-linejoin="round" stroke-miterlimit="10" stroke-width="1.44">
      <path d="m1030.9 528.84h-138.24"/>
      <path d="m322.56 515.52h-0.35999"/>
      <path d="m322.2 463.32v61.92"/>
      <path d="m460.26 456.84 1.44 0.17999 1.08 0.90002 0.89999 1.44 0.18 1.62"/>
      <path d="m467.46 515.34-0.89999 0.17999"/>
      <path d="m463.86 496.62v-23.22"/>
      <path d="m463.86 473.4 0.54 1.98 1.26 1.44 1.8 0.53998"/>
     </g>
     <g transform="matrix(.00288 -1 1 .00288 506.43 366.57)">
      <path d="m14.13 0c0 7.7869-6.2998 14.106-14.087 14.13s-14.125-6.2565-14.173-14.043" fill="none" stroke="#000" stroke-linecap="round" stroke-linejoin="round" stroke-miterlimit="10" stroke-width="1.44"/>
     </g>
     <path d="m208.8 380.88h793.62" fill="none" stroke="#000" stroke-linecap="round" stroke-linejoin="round" stroke-miterlimit="10" stroke-width="1.44"/>
     <path d="m1002.4 352.44h-793.62" fill="none" stroke="#000" stroke-linecap="round" stroke-linejoin="round" stroke-miterlimit="10" stroke-width="1.44"/>
     <g transform="matrix(-.00297 1 -1 -.00297 317.25 366.57)">
      <path d="m14.13 0c0 7.7869-6.2998 14.106-14.087 14.13s-14.125-6.2565-14.173-14.043" fill="none" stroke="#000" stroke-linecap="round" stroke-linejoin="round" stroke-miterlimit="10" stroke-width="1.44"/>
     </g>
     <g transform="rotate(89.994 -78.948 287.65)">
      <path d="m14.13 0c0 7.8035-6.3258 14.13-14.129 14.13s-14.13-6.3251-14.131-14.129" fill="none" stroke="#000" stroke-linecap="round" stroke-linejoin="round" stroke-miterlimit="10" stroke-width="1.44"/>
     </g>
     <path d="m705.6 409.14h-199.98" fill="none" stroke="#000" stroke-linecap="round" stroke-linejoin="round" stroke-miterlimit="10" stroke-width="1.44"/>
     <g transform="rotate(89.994 41.199 464.52)">
      <path d="m14.13 0c0 7.8035-6.3258 14.13-14.129 14.13s-14.13-6.3251-14.131-14.129" fill="none" stroke="#000" stroke-linecap="round" stroke-linejoin="round" stroke-miterlimit="10" stroke-width="1.44"/>
     </g>
     <path d="m505.62 437.58h199.98" fill="none" stroke="#000" stroke-linecap="round" stroke-linejoin="round" stroke-miterlimit="10" stroke-width="1.44"/>
     <g transform="rotate(269.99 439.63 -16.357)">
      <path d="m14.13 0c0 7.8035-6.3258 14.13-14.129 14.13s-14.13-6.3251-14.131-14.129" fill="none" stroke="#000" stroke-linecap="round" stroke-linejoin="round" stroke-miterlimit="10" stroke-width="1.44"/>
     </g>
     <path d="m456.12 409.14h-25.56" fill="none" stroke="#000" stroke-linecap="round" stroke-linejoin="round" stroke-miterlimit="10" stroke-width="1.44"/>
     <g transform="rotate(89.994 3.6688 426.98)">
      <path d="m14.13 0c0 7.8035-6.3258 14.13-14.129 14.13s-14.13-6.3251-14.131-14.129" fill="none" stroke="#000" stroke-linecap="round" stroke-linejoin="round" stroke-miterlimit="10" stroke-width="1.44"/>
     </g>
     <path d="m430.56 437.58h25.56" fill="none" stroke="#000" stroke-linecap="round" stroke-linejoin="round" stroke-miterlimit="10" stroke-width="1.44"/>
     <g transform="rotate(269.99 402.1 21.169)">
      <path d="m14.13 0c0 7.8035-6.3258 14.13-14.129 14.13s-14.13-6.3251-14.131-14.129" fill="none" stroke="#000" stroke-linecap="round" stroke-linejoin="round" stroke-miterlimit="10" stroke-width="1.44"/>
     </g>
     <path d="m380.88 409.14h-49.5" fill="none" stroke="#000" stroke-linecap="round" stroke-linejoin="round" stroke-miterlimit="10" stroke-width="1.44"/>
     <g transform="rotate(89.994 -46.011 377.3)">
      <path d="m14.13 0c0 7.8035-6.3258 14.13-14.129 14.13s-14.13-6.3251-14.131-14.129" fill="none" stroke="#000" stroke-linecap="round" stroke-linejoin="round" stroke-miterlimit="10" stroke-width="1.44"/>
     </g>
     <path d="m331.38 437.58h49.5" fill="none" stroke="#000" stroke-linecap="round" stroke-linejoin="round" stroke-miterlimit="10" stroke-width="1.44"/>
     <path d="m208.8 437.58h72.9" fill="none" stroke="#000" stroke-linecap="round" stroke-linejoin="round" stroke-miterlimit="10" stroke-width="1.44"/>
     <g transform="rotate(269.99 352.51 70.754)">
      <path d="m14.13 0c0 7.8035-6.3258 14.13-14.129 14.13s-14.13-6.3251-14.131-14.129" fill="none" stroke="#000" stroke-linecap="round" stroke-linejoin="round" stroke-miterlimit="10" stroke-width="1.44"/>
     </g>
     <path d="m281.7 409.14h-72.9" fill="none" stroke="#000" stroke-linecap="round" stroke-linejoin="round" stroke-miterlimit="10" stroke-width="1.44"/>
     <g transform="rotate(89.994 -107.3 316)">
      <path d="m14.13 0c0 7.8035-6.3258 14.13-14.129 14.13s-14.13-6.3251-14.131-14.129" fill="none" stroke="#000" stroke-linecap="round" stroke-linejoin="round" stroke-miterlimit="10" stroke-width="1.44"/>
     </g>
     <g transform="matrix(-.00297 1 -1 -.00297 416.43 366.57)">
      <path d="m14.13 0c0 7.7869-6.2998 14.106-14.087 14.13s-14.125-6.2565-14.173-14.043" fill="none" stroke="#000" stroke-linecap="round" stroke-linejoin="round" stroke-miterlimit="10" stroke-width="1.44"/>
     </g>
     <g fill="none" stroke="#000" stroke-linecap="round" stroke-linejoin="round" stroke-miterlimit="10" stroke-width="1.44">
      <path d="m322.2 514.26"/>
      <path d="m322.2 525.15c0 1.9384-1.5713 3.5098-3.5097 3.51"/>
      <path d="m463.86 473.4v-12.42"/>
      <path d="m460.26 456.84h-137.16"/>
      <path d="m322.56 515.52h144"/>
      <path d="m467.46 477.36h276.3"/>
      <path d="m744.66 515.52h-278.1"/>
      <path d="m318.6 528.84h-138.24v-197.64h850.5"/>
     </g>
    </g>
   </g>
   <g transform="matrix(.61529 0 0 .61529 175.77 296.98)">
    <g clip-path="url(#clipPath1041)">
     <text transform="matrix(1 0 0 -1 95.76 814.68)" fill="#000000" font-family="ISOCPEUR" font-size="15.66px"><tspan x="0" y="0"/></text>
     <g fill="none" stroke="#000" stroke-linecap="round" stroke-linejoin="round" stroke-miterlimit="10" stroke-width="1.98">
      <path d="m888.12 456.84h0.90002v6.48"/>
      <path d="m323.1 456.84h-0.9v6.48"/>
      <path d="m747.36 496.62v18.9"/>
      <path d="m463.86 496.62v18.9"/>
     </g>
     <flowRoot transform="matrix(1.2189 0 0 -1.2189 139.3 731.21)" fill="#000000" font-family="sans-serif" font-size="40px" letter-spacing="0px" word-spacing="0px" style="line-height:1.25" xml:space="preserve"><flowRegion><rect x="11.429" y="-96.052" width="795.71" height="67.143"/></flowRegion><flowPara/></flowRoot>
    </g>
   </g>
  </g>
 </g>
</svg>
